<?xml version="1.0" encoding="UTF-8" standalone="no"?>
<!DOCTYPE svg PUBLIC "-//W3C//DTD SVG 1.1//EN"
 "http://www.w3.org/Graphics/SVG/1.1/DTD/svg11.dtd">
<!-- Generated by graphviz version 2.43.0 (0)
 -->
<!-- Title: ECAC Pages: 1 -->
<svg width="3228pt" height="553pt"
 viewBox="0.00 0.00 3228.30 553.30" xmlns="http://www.w3.org/2000/svg" xmlns:xlink="http://www.w3.org/1999/xlink">
<g id="graph0" class="graph" transform="scale(1 1) rotate(0) translate(14.4 538.9)">
<title>ECAC</title>
<polygon fill="white" stroke="transparent" points="-14.4,14.4 -14.4,-538.9 3213.9,-538.9 3213.9,14.4 -14.4,14.4"/>
<!-- n_vc_issuers&#45;&gt;n_trustview -->
<g id="edge1" class="edge">
<title>n_vc_issuers&#45;&gt;n_trustview</title>
<path fill="none" stroke="#1f2937" stroke-width="1.1" d="M1089.53,-467.6C1099.43,-469.09 1105.5,-470 1105.5,-470 1105.5,-470 1494,-494 1494,-494 1494,-494 1553,-494 1553,-494 1553,-494 1941.5,-470 1941.5,-470 1941.5,-470 1944.11,-469.66 1948.74,-469.05"/>
<polygon fill="#1f2937" stroke="#1f2937" stroke-width="1.1" points="1949.34,-471.79 1956.91,-467.97 1948.61,-466.24 1949.34,-471.79"/>
<text text-anchor="middle" x="1523.5" y="-495" font-family="Helvetica,sans-Serif" font-size="10.00">key anchors</text>
</g>
<!-- n_vc_issuers&#45;&gt;n_trustview -->
<!-- n_trustview&#45;&gt;n_status_lists -->
<g id="edge2" class="edge">
<title>n_trustview&#45;&gt;n_status_lists</title>
<path fill="none" stroke="#1f2937" stroke-width="1.1" d="M2336.24,-443C2361.36,-443 2386.85,-443 2411.21,-443"/>
<polygon fill="#1f2937" stroke="#1f2937" stroke-width="1.1" points="2411.42,-445.8 2419.42,-443 2411.42,-440.2 2411.42,-445.8"/>
<text text-anchor="middle" x="2377.75" y="-449" font-family="Helvetica,sans-Serif" font-size="10.00">references</text>
</g>
<!-- n_trustview&#45;&gt;n_status_lists -->
<!-- n_trustview&#45;&gt;n_auth_epochs -->
<g id="edge3" class="edge">
<title>n_trustview&#45;&gt;n_auth_epochs</title>
<path fill="none" stroke="#1f2937" stroke-width="1.1" d="M1956.91,-417.95C1947.28,-416.73 1941.5,-416 1941.5,-416 1941.5,-416 1483.28,-376.51 1206.68,-352.68"/>
<polygon fill="#1f2937" stroke="#1f2937" stroke-width="1.1" points="1206.77,-349.88 1198.55,-351.98 1206.28,-355.46 1206.77,-349.88"/>
<text text-anchor="middle" x="1712" y="-386" font-family="Helvetica,sans-Serif" font-size="10.00">validate credentials</text>
</g>
<!-- n_event_producers&#45;&gt;n_p2p_gossip -->
<g id="edge4" class="edge">
<title>n_event_producers&#45;&gt;n_p2p_gossip</title>
<path fill="none" stroke="#1f2937" stroke-width="1.1" d="M1507.31,-443C1532.54,-443 1558.29,-443 1583.22,-443"/>
<polygon fill="#1f2937" stroke="#1f2937" stroke-width="1.1" points="1583.28,-445.8 1591.28,-443 1583.28,-440.2 1583.28,-445.8"/>
<text text-anchor="middle" x="1549.25" y="-449" font-family="Helvetica,sans-Serif" font-size="10.00">signed ops</text>
</g>
<!-- n_event_producers&#45;&gt;n_p2p_gossip -->
<!-- n_p2p_gossip&#45;&gt;n_signed_log -->
<g id="edge5" class="edge">
<title>n_p2p_gossip&#45;&gt;n_signed_log</title>
<path fill="none" stroke="#1f2937" stroke-width="1.1" d="M1591.47,-462.19C1553.19,-466.59 1523.5,-470 1523.5,-470 1523.5,-470 800,-494 800,-494 800,-494 745,-494 745,-494 745,-494 449.5,-470 449.5,-470 449.5,-470 431.53,-468.07 405.22,-465.24"/>
<polygon fill="#1f2937" stroke="#1f2937" stroke-width="1.1" points="405.44,-462.44 397.19,-464.37 404.84,-468.01 405.44,-462.44"/>
<text text-anchor="middle" x="772.5" y="-495" font-family="Helvetica,sans-Serif" font-size="10.00">deliver ops</text>
</g>
<!-- n_p2p_gossip&#45;&gt;n_signed_log -->
<!-- n_signed_log&#45;&gt;n_causal_dag -->
<g id="edge6" class="edge">
<title>n_signed_log&#45;&gt;n_causal_dag</title>
<path fill="none" stroke="#1f2937" stroke-width="1.1" d="M397.12,-443C417.65,-443 438.18,-443 457.86,-443"/>
<polygon fill="#1f2937" stroke="#1f2937" stroke-width="1.1" points="457.94,-445.8 465.94,-443 457.94,-440.2 457.94,-445.8"/>
<text text-anchor="middle" x="431.5" y="-449" font-family="Helvetica,sans-Serif" font-size="10.00">parents</text>
</g>
<!-- n_signed_log&#45;&gt;n_causal_dag -->
<!-- n_signed_log&#45;&gt;n_det_order -->
<g id="edge7" class="edge">
<title>n_signed_log&#45;&gt;n_det_order</title>
<path fill="none" stroke="#1f2937" stroke-width="1.1" d="M295.6,-415.96C355.21,-399.97 431.57,-379.5 492.57,-363.14"/>
<polygon fill="#1f2937" stroke="#1f2937" stroke-width="1.1" points="493.31,-365.84 500.31,-361.06 491.86,-360.43 493.31,-365.84"/>
<text text-anchor="middle" x="431" y="-386" font-family="Helvetica,sans-Serif" font-size="10.00">toposort</text>
</g>
<!-- n_causal_dag&#45;&gt;n_det_order -->
<g id="edge8" class="edge">
<title>n_causal_dag&#45;&gt;n_det_order</title>
<path fill="none" stroke="#1f2937" stroke-width="1.1" stroke-dasharray="5,2" d="M597.5,-415.82C597.5,-401.83 597.5,-384.44 597.5,-369.37"/>
<polygon fill="#1f2937" stroke="#1f2937" stroke-width="1.1" points="600.3,-369.28 597.5,-361.28 594.7,-369.28 600.3,-369.28"/>
</g>
<!-- n_det_order&#45;&gt;n_auth_epochs -->
<!-- n_det_order&#45;&gt;n_policy_engine -->
<g id="edge9" class="edge">
<title>n_det_order&#45;&gt;n_policy_engine</title>
<path fill="none" stroke="#1f2937" stroke-width="1.1" d="M651.63,-306.88C678.1,-294.1 710.07,-278.68 737.41,-265.48"/>
<polygon fill="#1f2937" stroke="#1f2937" stroke-width="1.1" points="738.64,-268 744.62,-262 736.2,-262.96 738.64,-268"/>
</g>
<!-- n_auth_epochs&#45;&gt;n_policy_engine -->
<g id="edge10" class="edge">
<title>n_auth_epochs&#45;&gt;n_policy_engine</title>
<path fill="none" stroke="#1f2937" stroke-width="1.1" d="M946.83,-306.88C920.1,-294.1 887.81,-278.68 860.2,-265.48"/>
<polygon fill="#1f2937" stroke="#1f2937" stroke-width="1.1" points="861.34,-262.92 852.91,-262 858.92,-267.98 861.34,-262.92"/>
</g>
<!-- n_policy_engine&#45;&gt;n_deny_wins_gate -->
<g id="edge11" class="edge">
<title>n_policy_engine&#45;&gt;n_deny_wins_gate</title>
<path fill="none" stroke="#1f2937" stroke-width="1.1" d="M960.74,-235C982.14,-235 1003.85,-235 1024.66,-235"/>
<polygon fill="#1f2937" stroke="#1f2937" stroke-width="1.1" points="1024.89,-237.8 1032.89,-235 1024.89,-232.2 1024.89,-237.8"/>
<text text-anchor="middle" x="996.75" y="-241" font-family="Helvetica,sans-Serif" font-size="10.00">decision</text>
</g>
<!-- n_policy_engine&#45;&gt;n_deny_wins_gate -->
<!-- n_deny_wins_gate&#45;&gt;n_det_replay -->
<g id="edge12" class="edge">
<title>n_deny_wins_gate&#45;&gt;n_det_replay</title>
<path fill="none" stroke="#1f2937" stroke-width="1.1" d="M1156.5,-207.75C1156.5,-196.54 1156.5,-183.3 1156.5,-171.32"/>
<polygon fill="#1f2937" stroke="#1f2937" stroke-width="1.1" points="1159.3,-171.27 1156.5,-163.27 1153.7,-171.27 1159.3,-171.27"/>
</g>
<!-- n_det_replay&#45;&gt;n_crdt_layer -->
<g id="edge13" class="edge">
<title>n_det_replay&#45;&gt;n_crdt_layer</title>
<path fill="none" stroke="#1f2937" stroke-width="1.1" d="M1331.27,-109C1348.65,-109 1369,-109 1386.41,-109"/>
<polygon fill="#1f2937" stroke="#1f2937" stroke-width="1.1" points="1386.7,-111.8 1394.7,-109 1386.7,-106.2 1386.7,-111.8"/>
</g>
<!-- n_det_replay&#45;&gt;n_crdt_layer -->
<!-- n_det_replay&#45;&gt;n_materialized_state -->
<g id="edge15" class="edge">
<title>n_det_replay&#45;&gt;n_materialized_state</title>
<path fill="none" stroke="#1f2937" stroke-width="1.1" d="M1214.9,-108.96C1249.75,-93.43 1294.1,-73.65 1330.25,-57.54"/>
<polygon fill="#1f2937" stroke="#1f2937" stroke-width="1.1" points="1331.67,-59.97 1337.83,-54.16 1329.39,-54.86 1331.67,-59.97"/>
</g>
<!-- n_det_replay&#45;&gt;n_metrics -->
<g id="edge16" class="edge">
<title>n_det_replay&#45;&gt;n_metrics</title>
<path fill="none" stroke="#1f2937" stroke-width="1.1" d="M1331.11,-114.64C1359.33,-111.35 1379.5,-109 1379.5,-109 1379.5,-109 1702.5,-76 1702.5,-76 1702.5,-76 2354.5,-54 2354.5,-54 2354.5,-54 2370.42,-51.95 2393.33,-49"/>
<polygon fill="#1f2937" stroke="#1f2937" stroke-width="1.1" points="2393.77,-51.77 2401.35,-47.97 2393.06,-46.21 2393.77,-51.77"/>
<text text-anchor="middle" x="1721" y="-79" font-family="Helvetica,sans-Serif" font-size="10.00">metrics</text>
</g>
<!-- n_crdt_layer&#45;&gt;n_materialized_state -->
<g id="edge14" class="edge">
<title>n_crdt_layer&#45;&gt;n_materialized_state</title>
<path fill="none" stroke="#1f2937" stroke-width="1.1" stroke-dasharray="5,2" d="M1521.14,-108.82C1497.68,-93.61 1468.01,-74.37 1443.5,-58.48"/>
<polygon fill="#1f2937" stroke="#1f2937" stroke-width="1.1" points="1444.97,-56.09 1436.73,-54.09 1441.92,-60.79 1444.97,-56.09"/>
</g>
<!-- n_materialized_state&#45;&gt;n_persistence -->
<g id="edge18" class="edge">
<title>n_materialized_state&#45;&gt;n_persistence</title>
<path fill="none" stroke="#1f2937" stroke-width="1.1" d="M1554.77,0C1571.02,0 1591.56,0 1609.78,0"/>
<polygon fill="#1f2937" stroke="#1f2937" stroke-width="1.1" points="1609.96,-2.8 1617.96,0 1609.96,2.8 1609.96,-2.8"/>
</g>
<!-- n_materialized_state&#45;&gt;n_persistence -->
<!-- n_materialized_state&#45;&gt;n_audit_trail -->
<g id="edge17" class="edge">
<title>n_materialized_state&#45;&gt;n_audit_trail</title>
<path fill="none" stroke="#1f2937" stroke-width="1.1" d="M1554.57,-50C1647.53,-63.53 1747,-78 1747,-78 1747,-78 1820,-78 1820,-78 1820,-78 1913.69,-64.56 2004.87,-51.48"/>
<polygon fill="#1f2937" stroke="#1f2937" stroke-width="1.1" points="2005.31,-54.24 2012.84,-50.34 2004.52,-48.7 2005.31,-54.24"/>
<text text-anchor="middle" x="1783.5" y="-79" font-family="Helvetica,sans-Serif" font-size="10.00">semantic trace</text>
</g>
<!-- n_persistence&#45;&gt;n_audit_trail -->
<!-- n_audit_trail&#45;&gt;n_metrics -->
<!-- n_metrics&#45;&gt;n_legend -->
<!-- n_confidentiality&#45;&gt;n_det_replay -->
<g id="edge19" class="edge">
<title>n_confidentiality&#45;&gt;n_det_replay</title>
<path fill="none" stroke="#1f2937" stroke-width="1.1" d="M1024.93,-54.09C1049.64,-69.29 1080.93,-88.53 1106.79,-104.43"/>
<polygon fill="#1f2937" stroke="#1f2937" stroke-width="1.1" points="1105.65,-107.02 1113.93,-108.82 1108.59,-102.25 1105.65,-107.02"/>
<text text-anchor="middle" x="1126.5" y="-79" font-family="Helvetica,sans-Serif" font-size="10.00">decrypt if authorized</text>
</g>
<!-- n_confidentiality&#45;&gt;n_materialized_state -->
<!-- n_vc_issuers -->
<g id="node1" class="node">
<title>n_vc_issuers</title>
<path fill="#e0f2fe" stroke="#1f2937" stroke-width="1.3" d="M1077.5,-470C1077.5,-470 773.5,-470 773.5,-470 767.5,-470 761.5,-464 761.5,-458 761.5,-458 761.5,-428 761.5,-428 761.5,-422 767.5,-416 773.5,-416 773.5,-416 1077.5,-416 1077.5,-416 1083.5,-416 1089.5,-422 1089.5,-428 1089.5,-428 1089.5,-458 1089.5,-458 1089.5,-464 1083.5,-470 1077.5,-470"/>
<text text-anchor="start" x="773.5" y="-451.4" font-family="Helvetica,sans-Serif" font-weight="bold" font-size="12.00">VC Issuers</text>
<text text-anchor="start" x="773.5" y="-429" font-family="Helvetica,sans-Serif" font-size="10.00">“Sign verifiable credentials (roles, scopes, validity windows).”</text>
</g>
<!-- n_status_lists -->
<g id="node2" class="node">
<title>n_status_lists</title>
<path fill="#e0f2fe" stroke="#1f2937" stroke-width="1.3" d="M2693.5,-470C2693.5,-470 2431.5,-470 2431.5,-470 2425.5,-470 2419.5,-464 2419.5,-458 2419.5,-458 2419.5,-428 2419.5,-428 2419.5,-422 2425.5,-416 2431.5,-416 2431.5,-416 2693.5,-416 2693.5,-416 2699.5,-416 2705.5,-422 2705.5,-428 2705.5,-428 2705.5,-458 2705.5,-458 2705.5,-464 2699.5,-470 2693.5,-470"/>
<text text-anchor="start" x="2431.5" y="-451.4" font-family="Helvetica,sans-Serif" font-weight="bold" font-size="12.00">Status Lists</text>
<text text-anchor="start" x="2431.5" y="-429" font-family="Helvetica,sans-Serif" font-size="10.00">“Revocation/state bitstrings; short TTL for freshness.”</text>
</g>
<!-- n_trustview -->
<g id="node3" class="node">
<title>n_trustview</title>
<path fill="#e0f2fe" stroke="#1f2937" stroke-width="1.3" d="M2324,-470C2324,-470 1969,-470 1969,-470 1963,-470 1957,-464 1957,-458 1957,-458 1957,-428 1957,-428 1957,-422 1963,-416 1969,-416 1969,-416 2324,-416 2324,-416 2330,-416 2336,-422 2336,-428 2336,-428 2336,-458 2336,-458 2336,-464 2330,-470 2324,-470"/>
<text text-anchor="start" x="1969.5" y="-451.4" font-family="Helvetica,sans-Serif" font-weight="bold" font-size="12.00">TrustView (in‑band)</text>
<text text-anchor="start" x="1969.5" y="-429" font-family="Helvetica,sans-Serif" font-size="10.00">“Issuer keys + status digests recorded as events for offline verification.”</text>
</g>
<!-- n_event_producers -->
<g id="node4" class="node">
<title>n_event_producers</title>
<path fill="#ede9fe" stroke="#1f2937" stroke-width="1.3" d="M1495,-470C1495,-470 1134,-470 1134,-470 1128,-470 1122,-464 1122,-458 1122,-458 1122,-428 1122,-428 1122,-422 1128,-416 1134,-416 1134,-416 1495,-416 1495,-416 1501,-416 1507,-422 1507,-428 1507,-428 1507,-458 1507,-458 1507,-464 1501,-470 1495,-470"/>
<text text-anchor="start" x="1134.5" y="-451.4" font-family="Helvetica,sans-Serif" font-weight="bold" font-size="12.00">Event Producers</text>
<text text-anchor="start" x="1134.5" y="-429" font-family="Helvetica,sans-Serif" font-size="10.00">“Users/agents create DATA; authorities issue GRANT/REVOKE; all signed.”</text>
</g>
<!-- n_p2p_gossip -->
<g id="node5" class="node">
<title>n_p2p_gossip</title>
<path fill="#ede9fe" stroke="#1f2937" stroke-width="1.3" d="M1913.5,-470C1913.5,-470 1603.5,-470 1603.5,-470 1597.5,-470 1591.5,-464 1591.5,-458 1591.5,-458 1591.5,-428 1591.5,-428 1591.5,-422 1597.5,-416 1603.5,-416 1603.5,-416 1913.5,-416 1913.5,-416 1919.5,-416 1925.5,-422 1925.5,-428 1925.5,-428 1925.5,-458 1925.5,-458 1925.5,-464 1919.5,-470 1913.5,-470"/>
<text text-anchor="start" x="1603.5" y="-451.4" font-family="Helvetica,sans-Serif" font-weight="bold" font-size="12.00">P2P Gossip / Sync</text>
<text text-anchor="start" x="1603.5" y="-429" font-family="Helvetica,sans-Serif" font-size="10.00">“Anti‑entropy; dedup; causal parent fetching; secure transport.”</text>
</g>
<!-- n_signed_log -->
<g id="node6" class="node">
<title>n_signed_log</title>
<path fill="#ffe4c7" stroke="#1f2937" stroke-width="1.3" d="M385,-470C385,-470 12,-470 12,-470 6,-470 0,-464 0,-458 0,-458 0,-428 0,-428 0,-422 6,-416 12,-416 12,-416 385,-416 385,-416 391,-416 397,-422 397,-428 397,-428 397,-458 397,-458 397,-464 391,-470 385,-470"/>
<text text-anchor="start" x="12.5" y="-451.4" font-family="Helvetica,sans-Serif" font-weight="bold" font-size="12.00">Signed, Hash‑Linked Op Log</text>
<text text-anchor="start" x="12.5" y="-429" font-family="Helvetica,sans-Serif" font-size="10.00">“Append‑only events with parent links; op_id = H(domain ∥ CBOR(header)).”</text>
</g>
<!-- n_causal_dag -->
<g id="node7" class="node">
<title>n_causal_dag</title>
<path fill="#ffe4c7" stroke="#1f2937" stroke-width="1.3" d="M717,-470C717,-470 478,-470 478,-470 472,-470 466,-464 466,-458 466,-458 466,-428 466,-428 466,-422 472,-416 478,-416 478,-416 717,-416 717,-416 723,-416 729,-422 729,-428 729,-428 729,-458 729,-458 729,-464 723,-470 717,-470"/>
<text text-anchor="start" x="478.5" y="-451.4" font-family="Helvetica,sans-Serif" font-weight="bold" font-size="12.00">Causal DAG</text>
<text text-anchor="start" x="478.5" y="-429" font-family="Helvetica,sans-Serif" font-size="10.00">“Parents‑first structure; robust under reordering.”</text>
</g>
<!-- n_det_order -->
<g id="node8" class="node">
<title>n_det_order</title>
<path fill="#dcfce7" stroke="#1f2937" stroke-width="1.3" d="M728.5,-361C728.5,-361 466.5,-361 466.5,-361 460.5,-361 454.5,-355 454.5,-349 454.5,-349 454.5,-319 454.5,-319 454.5,-313 460.5,-307 466.5,-307 466.5,-307 728.5,-307 728.5,-307 734.5,-307 740.5,-313 740.5,-319 740.5,-319 740.5,-349 740.5,-349 740.5,-355 734.5,-361 728.5,-361"/>
<text text-anchor="start" x="466.5" y="-342.4" font-family="Helvetica,sans-Serif" font-weight="bold" font-size="12.00">Deterministic Order</text>
<text text-anchor="start" x="466.5" y="-320" font-family="Helvetica,sans-Serif" font-size="10.00">“Topo order + (HLC, op_id) tie‑break for concurrents.”</text>
</g>
<!-- n_auth_epochs -->
<g id="node9" class="node">
<title>n_auth_epochs</title>
<path fill="#dcfce7" stroke="#1f2937" stroke-width="1.3" d="M1186.5,-361C1186.5,-361 816.5,-361 816.5,-361 810.5,-361 804.5,-355 804.5,-349 804.5,-349 804.5,-319 804.5,-319 804.5,-313 810.5,-307 816.5,-307 816.5,-307 1186.5,-307 1186.5,-307 1192.5,-307 1198.5,-313 1198.5,-319 1198.5,-319 1198.5,-349 1198.5,-349 1198.5,-355 1192.5,-361 1186.5,-361"/>
<text text-anchor="start" x="816.5" y="-342.4" font-family="Helvetica,sans-Serif" font-weight="bold" font-size="12.00">Authorization Epochs</text>
<text text-anchor="start" x="816.5" y="-320" font-family="Helvetica,sans-Serif" font-size="10.00">“Grants + revokes + status ⇒ time‑bounded intervals per subject &amp; scope.”</text>
</g>
<!-- n_policy_engine -->
<g id="node10" class="node">
<title>n_policy_engine</title>
<path fill="#ecfccb" stroke="#1f2937" stroke-width="1.3" d="M948.5,-262C948.5,-262 648.5,-262 648.5,-262 642.5,-262 636.5,-256 636.5,-250 636.5,-250 636.5,-220 636.5,-220 636.5,-214 642.5,-208 648.5,-208 648.5,-208 948.5,-208 948.5,-208 954.5,-208 960.5,-214 960.5,-220 960.5,-220 960.5,-250 960.5,-250 960.5,-256 954.5,-262 948.5,-262"/>
<text text-anchor="start" x="648.5" y="-243.4" font-family="Helvetica,sans-Serif" font-weight="bold" font-size="12.00">Policy Engine (Cedar)</text>
<text text-anchor="start" x="648.5" y="-221" font-family="Helvetica,sans-Serif" font-size="10.00">“Hybrid ABAC/RBAC; deny‑overrides implements deny‑wins.”</text>
</g>
<!-- n_deny_wins_gate -->
<g id="node11" class="node">
<title>n_deny_wins_gate</title>
<path fill="#fef3c7" stroke="#1f2937" stroke-width="1.3" d="M1268,-262C1268,-262 1045,-262 1045,-262 1039,-262 1033,-256 1033,-250 1033,-250 1033,-220 1033,-220 1033,-214 1039,-208 1045,-208 1045,-208 1268,-208 1268,-208 1274,-208 1280,-214 1280,-220 1280,-220 1280,-250 1280,-250 1280,-256 1274,-262 1268,-262"/>
<text text-anchor="start" x="1045.5" y="-243.4" font-family="Helvetica,sans-Serif" font-weight="bold" font-size="12.00">Deny‑Wins Gate</text>
<text text-anchor="start" x="1045.5" y="-221" font-family="Helvetica,sans-Serif" font-size="10.00">“Apply if authorized @ event time; else skip.”</text>
</g>
<!-- n_det_replay -->
<g id="node12" class="node">
<title>n_det_replay</title>
<path fill="#ccfbf1" stroke="#1f2937" stroke-width="1.3" d="M1319,-163C1319,-163 994,-163 994,-163 988,-163 982,-157 982,-151 982,-151 982,-121 982,-121 982,-115 988,-109 994,-109 994,-109 1319,-109 1319,-109 1325,-109 1331,-115 1331,-121 1331,-121 1331,-151 1331,-151 1331,-157 1325,-163 1319,-163"/>
<text text-anchor="start" x="994.5" y="-144.4" font-family="Helvetica,sans-Serif" font-weight="bold" font-size="12.00">Deterministic Replay</text>
<text text-anchor="start" x="994.5" y="-122" font-family="Helvetica,sans-Serif" font-size="10.00">“Scan total order; call gate; apply DATA ops only when permitted.”</text>
</g>
<!-- n_crdt_layer -->
<g id="node13" class="node">
<title>n_crdt_layer</title>
<path fill="#cffafe" stroke="#1f2937" stroke-width="1.3" d="M1716,-163C1716,-163 1407,-163 1407,-163 1401,-163 1395,-157 1395,-151 1395,-151 1395,-121 1395,-121 1395,-115 1401,-109 1407,-109 1407,-109 1716,-109 1716,-109 1722,-109 1728,-115 1728,-121 1728,-121 1728,-151 1728,-151 1728,-157 1722,-163 1716,-163"/>
<text text-anchor="start" x="1407.5" y="-144.4" font-family="Helvetica,sans-Serif" font-weight="bold" font-size="12.00">CRDT Layer</text>
<text text-anchor="start" x="1407.5" y="-122" font-family="Helvetica,sans-Serif" font-size="10.00">“MVReg / OR‑Set; deterministic merges under the same order.”</text>
</g>
<!-- n_materialized_state -->
<g id="node14" class="node">
<title>n_materialized_state</title>
<path fill="#f3f4f6" stroke="#1f2937" stroke-width="1.3" d="M1542.5,-54C1542.5,-54 1250.5,-54 1250.5,-54 1244.5,-54 1238.5,-48 1238.5,-42 1238.5,-42 1238.5,-12 1238.5,-12 1238.5,-6 1244.5,0 1250.5,0 1250.5,0 1542.5,0 1542.5,0 1548.5,0 1554.5,-6 1554.5,-12 1554.5,-12 1554.5,-42 1554.5,-42 1554.5,-48 1548.5,-54 1542.5,-54"/>
<text text-anchor="start" x="1250.5" y="-35.4" font-family="Helvetica,sans-Serif" font-weight="bold" font-size="12.00">Materialized State</text>
<text text-anchor="start" x="1250.5" y="-13" font-family="Helvetica,sans-Serif" font-size="10.00">“Final, policy‑correct view; byte‑identical for same events.”</text>
</g>
<!-- n_persistence -->
<g id="node15" class="node">
<title>n_persistence</title>
<path fill="#f3f4f6" stroke="#1f2937" stroke-width="1.3" d="M1937,-54C1937,-54 1630,-54 1630,-54 1624,-54 1618,-48 1618,-42 1618,-42 1618,-12 1618,-12 1618,-6 1624,0 1630,0 1630,0 1937,0 1937,0 1943,0 1949,-6 1949,-12 1949,-12 1949,-42 1949,-42 1949,-48 1943,-54 1937,-54"/>
<text text-anchor="start" x="1630.5" y="-35.4" font-family="Helvetica,sans-Serif" font-weight="bold" font-size="12.00">Persistence &amp; Checkpoints</text>
<text text-anchor="start" x="1630.5" y="-13" font-family="Helvetica,sans-Serif" font-size="10.00">“Append‑only event store; periodic deterministic checkpoints.”</text>
</g>
<!-- n_audit_trail -->
<g id="node16" class="node">
<title>n_audit_trail</title>
<path fill="#f3f4f6" stroke="#1f2937" stroke-width="1.3" d="M2326,-54C2326,-54 2025,-54 2025,-54 2019,-54 2013,-48 2013,-42 2013,-42 2013,-12 2013,-12 2013,-6 2019,0 2025,0 2025,0 2326,0 2326,0 2332,0 2338,-6 2338,-12 2338,-12 2338,-42 2338,-42 2338,-48 2332,-54 2326,-54"/>
<text text-anchor="start" x="2025.5" y="-35.4" font-family="Helvetica,sans-Serif" font-weight="bold" font-size="12.00">Audit Trail</text>
<text text-anchor="start" x="2025.5" y="-13" font-family="Helvetica,sans-Serif" font-size="10.00">“Signed, hash‑chained applied/skipped ops; tamper‑evident.”</text>
</g>
<!-- n_metrics -->
<g id="node17" class="node">
<title>n_metrics</title>
<path fill="#f3f4f6" stroke="#1f2937" stroke-width="1.3" d="M2699.5,-54C2699.5,-54 2413.5,-54 2413.5,-54 2407.5,-54 2401.5,-48 2401.5,-42 2401.5,-42 2401.5,-12 2401.5,-12 2401.5,-6 2407.5,0 2413.5,0 2413.5,0 2699.5,0 2699.5,0 2705.5,0 2711.5,-6 2711.5,-12 2711.5,-12 2711.5,-42 2711.5,-42 2711.5,-48 2705.5,-54 2699.5,-54"/>
<text text-anchor="start" x="2413.5" y="-35.4" font-family="Helvetica,sans-Serif" font-weight="bold" font-size="12.00">Metrics &amp; Evaluation</text>
<text text-anchor="start" x="2413.5" y="-13" font-family="Helvetica,sans-Serif" font-size="10.00">“Convergence latency • rollback count • rebuild duration.”</text>
</g>
<!-- n_confidentiality -->
<g id="node18" class="node">
<title>n_confidentiality</title>
<path fill="#fee2e2" stroke="#1f2937" stroke-width="1.3" d="M1163,-54C1163,-54 802,-54 802,-54 796,-54 790,-48 790,-42 790,-42 790,-12 790,-12 790,-6 796,0 802,0 802,0 1163,0 1163,0 1169,0 1175,-6 1175,-12 1175,-12 1175,-42 1175,-42 1175,-48 1169,-54 1163,-54"/>
<text text-anchor="start" x="802.5" y="-35.4" font-family="Helvetica,sans-Serif" font-weight="bold" font-size="12.00">Confidentiality &amp; Keys</text>
<text text-anchor="start" x="802.5" y="-13" font-family="Helvetica,sans-Serif" font-size="10.00">“Tag/version encryption; key rotation at revocation; consistent redaction.”</text>
</g>
<!-- n_legend -->
<g id="node19" class="node">
<title>n_legend</title>
<path fill="#f3f4f6" stroke="#1f2937" stroke-width="1.3" d="M3187.5,-54C3187.5,-54 2787.5,-54 2787.5,-54 2781.5,-54 2775.5,-48 2775.5,-42 2775.5,-42 2775.5,-12 2775.5,-12 2775.5,-6 2781.5,0 2787.5,0 2787.5,0 3187.5,0 3187.5,0 3193.5,0 3199.5,-6 3199.5,-12 3199.5,-12 3199.5,-42 3199.5,-42 3199.5,-48 3193.5,-54 3187.5,-54"/>
<text text-anchor="start" x="2787.5" y="-35.4" font-family="Helvetica,sans-Serif" font-weight="bold" font-size="12.00">Formal Guarantees (sketch)</text>
<text text-anchor="start" x="2787.5" y="-13" font-family="Helvetica,sans-Serif" font-size="10.00">“Convergence • Policy‑Safety • Determinism • Audit Integrity • Forward Secrecy”</text>
</g>
</g>
</svg>
