<?xml version="1.0" encoding="UTF-8" standalone="no"?>
<!DOCTYPE svg PUBLIC "-//W3C//DTD SVG 1.1//EN"
 "http://www.w3.org/Graphics/SVG/1.1/DTD/svg11.dtd">
<!-- Generated by graphviz version 2.43.0 (0)
 -->
<!-- Title: ECAC_Architecture Pages: 1 -->
<svg width="966pt" height="1112pt"
 viewBox="0.00 0.00 966.00 1112.00" xmlns="http://www.w3.org/2000/svg" xmlns:xlink="http://www.w3.org/1999/xlink">
<g id="graph0" class="graph" transform="scale(1 1) rotate(0) translate(4 1108)">
<title>ECAC_Architecture</title>
<polygon fill="white" stroke="transparent" points="-4,4 -4,-1108 962,-1108 962,4 -4,4"/>
<g id="clust1" class="cluster">
<title>cluster_trust</title>
<path fill="#e0f2fe" stroke="#1f2937" d="M20,-472C20,-472 326,-472 326,-472 332,-472 338,-478 338,-484 338,-484 338,-712 338,-712 338,-718 332,-724 326,-724 326,-724 20,-724 20,-724 14,-724 8,-718 8,-712 8,-712 8,-484 8,-484 8,-478 14,-472 20,-472"/>
<text text-anchor="middle" x="61.5" y="-710.4" font-family="DejaVu Sans" font-size="12.00">Identity &amp; Trust</text>
</g>
<g id="clust2" class="cluster">
<title>cluster_network</title>
<path fill="#ede9fe" stroke="#1f2937" d="M318,-936C318,-936 504,-936 504,-936 510,-936 516,-942 516,-948 516,-948 516,-1084 516,-1084 516,-1090 510,-1096 504,-1096 504,-1096 318,-1096 318,-1096 312,-1096 306,-1090 306,-1084 306,-1084 306,-948 306,-948 306,-942 312,-936 318,-936"/>
<text text-anchor="middle" x="377.5" y="-1082.4" font-family="DejaVu Sans" font-size="12.00">Producers &amp; Network</text>
</g>
<g id="clust3" class="cluster">
<title>cluster_log</title>
<path fill="#ffe4c7" stroke="#1f2937" d="M315,-743C315,-743 507,-743 507,-743 513,-743 519,-749 519,-755 519,-755 519,-891 519,-891 519,-897 513,-903 507,-903 507,-903 315,-903 315,-903 309,-903 303,-897 303,-891 303,-891 303,-755 303,-755 303,-749 309,-743 315,-743"/>
<text text-anchor="middle" x="357.5" y="-889.4" font-family="DejaVu Sans" font-size="12.00">Log &amp; Causality</text>
</g>
<g id="clust4" class="cluster">
<title>cluster_order</title>
<path fill="#dcfce7" stroke="#1f2937" d="M358,-564C358,-564 586,-564 586,-564 592,-564 598,-570 598,-576 598,-576 598,-712 598,-712 598,-718 592,-724 586,-724 586,-724 358,-724 358,-724 352,-724 346,-718 346,-712 346,-712 346,-576 346,-576 346,-570 352,-564 358,-564"/>
<text text-anchor="middle" x="442.5" y="-710.4" font-family="DejaVu Sans" font-size="12.00">Deterministic Order &amp; Epochs</text>
</g>
<g id="clust5" class="cluster">
<title>cluster_policy</title>
<path fill="#ecfccb" stroke="#1f2937" d="M418,-366C418,-366 646,-366 646,-366 652,-366 658,-372 658,-378 658,-378 658,-533 658,-533 658,-539 652,-545 646,-545 646,-545 418,-545 418,-545 412,-545 406,-539 406,-533 406,-533 406,-378 406,-378 406,-372 412,-366 418,-366"/>
<text text-anchor="middle" x="453.5" y="-531.4" font-family="DejaVu Sans" font-size="12.00">Policy &amp; Gate</text>
</g>
<g id="clust6" class="cluster">
<title>cluster_replay</title>
<path fill="#ccfbf1" stroke="#1f2937" d="M497,-187C497,-187 673,-187 673,-187 679,-187 685,-193 685,-199 685,-199 685,-321 685,-321 685,-327 679,-333 673,-333 673,-333 497,-333 497,-333 491,-333 485,-327 485,-321 485,-321 485,-199 485,-199 485,-193 491,-187 497,-187"/>
<text text-anchor="middle" x="540" y="-319.4" font-family="DejaVu Sans" font-size="12.00">Replay &amp; CRDTs</text>
</g>
<g id="clust7" class="cluster">
<title>cluster_outputs</title>
<path fill="#f3f4f6" stroke="#1f2937" d="M448,-8C448,-8 924,-8 924,-8 930,-8 936,-14 936,-20 936,-20 936,-156 936,-156 936,-162 930,-168 924,-168 924,-168 448,-168 448,-168 442,-168 436,-162 436,-156 436,-156 436,-20 436,-20 436,-14 442,-8 448,-8"/>
<text text-anchor="middle" x="532" y="-154.4" font-family="DejaVu Sans" font-size="12.00">State, Storage, Audit, Metrics</text>
</g>
<g id="clust8" class="cluster">
<title>cluster_conf</title>
<path fill="#fee2e2" stroke="#1f2937" d="M678,-366C678,-366 938,-366 938,-366 944,-366 950,-372 950,-378 950,-378 950,-427 950,-427 950,-433 944,-439 938,-439 938,-439 678,-439 678,-439 672,-439 666,-433 666,-427 666,-427 666,-378 666,-378 666,-372 672,-366 678,-366"/>
<text text-anchor="middle" x="717" y="-425.4" font-family="DejaVu Sans" font-size="12.00">Confidentiality</text>
</g>
<!-- issuers -->
<g id="node1" class="node">
<title>issuers</title>
<path fill="#e0f2fe" stroke="#1f2937" d="M206,-608C206,-608 28,-608 28,-608 22,-608 16,-602 16,-596 16,-596 16,-584 16,-584 16,-578 22,-572 28,-572 28,-572 206,-572 206,-572 212,-572 218,-578 218,-584 218,-584 218,-596 218,-596 218,-602 212,-608 206,-608"/>
<text text-anchor="middle" x="117" y="-593" font-family="DejaVu Sans" font-size="10.00">VC Issuers</text>
<text text-anchor="middle" x="117" y="-582" font-family="DejaVu Sans" font-size="10.00">(sign roles, scopes, validity windows)</text>
</g>
<!-- status -->
<g id="node2" class="node">
<title>status</title>
<path fill="#e0f2fe" stroke="#1f2937" d="M256,-516C256,-516 102,-516 102,-516 96,-516 90,-510 90,-504 90,-504 90,-492 90,-492 90,-486 96,-480 102,-480 102,-480 256,-480 256,-480 262,-480 268,-486 268,-492 268,-492 268,-504 268,-504 268,-510 262,-516 256,-516"/>
<text text-anchor="middle" x="179" y="-501" font-family="DejaVu Sans" font-size="10.00">Status Lists</text>
<text text-anchor="middle" x="179" y="-490" font-family="DejaVu Sans" font-size="10.00">(revocation bitstrings, short TTL)</text>
</g>
<!-- issuers&#45;&gt;status -->
<!-- trustview -->
<g id="node3" class="node">
<title>trustview</title>
<path fill="#e0f2fe" stroke="#1f2937" d="M317.5,-695C317.5,-695 130.5,-695 130.5,-695 124.5,-695 118.5,-689 118.5,-683 118.5,-683 118.5,-671 118.5,-671 118.5,-665 124.5,-659 130.5,-659 130.5,-659 317.5,-659 317.5,-659 323.5,-659 329.5,-665 329.5,-671 329.5,-671 329.5,-683 329.5,-683 329.5,-689 323.5,-695 317.5,-695"/>
<text text-anchor="middle" x="224" y="-680" font-family="DejaVu Sans" font-size="10.00">TrustView (in&#45;band)</text>
<text text-anchor="middle" x="224" y="-669" font-family="DejaVu Sans" font-size="10.00">(issuer keys + status digests in events)</text>
</g>
<!-- trustview&#45;&gt;issuers -->
<g id="edge7" class="edge">
<title>trustview&#45;&gt;issuers</title>
<path fill="none" stroke="#1f2937" d="M189.88,-658.87C180.78,-653.65 171.2,-647.55 163,-641 153.92,-633.75 145.02,-624.67 137.5,-616.25"/>
<polygon fill="#1f2937" stroke="#1f2937" points="139.94,-613.73 130.75,-608.46 134.65,-618.31 139.94,-613.73"/>
<text text-anchor="middle" x="206" y="-629.8" font-family="Times,serif" font-size="14.00">key anchors</text>
</g>
<!-- trustview&#45;&gt;status -->
<g id="edge6" class="edge">
<title>trustview&#45;&gt;status</title>
<path fill="none" stroke="#1f2937" d="M239.58,-658.65C243.41,-653.35 246.99,-647.26 249,-641 251.03,-634.65 250.13,-632.57 249,-626 244.04,-597.19 240.72,-589.82 227,-564 219.58,-550.05 209.4,-535.78 200.32,-524.19"/>
<polygon fill="#1f2937" stroke="#1f2937" points="202.95,-521.87 193.96,-516.26 197.48,-526.25 202.95,-521.87"/>
<text text-anchor="middle" x="283" y="-586.3" font-family="Times,serif" font-size="14.00">references</text>
</g>
<!-- epochs -->
<g id="node9" class="node">
<title>epochs</title>
<path fill="#dcfce7" stroke="#1f2937" d="M578,-608C578,-608 366,-608 366,-608 360,-608 354,-602 354,-596 354,-596 354,-584 354,-584 354,-578 360,-572 366,-572 366,-572 578,-572 578,-572 584,-572 590,-578 590,-584 590,-584 590,-596 590,-596 590,-602 584,-608 578,-608"/>
<text text-anchor="middle" x="472" y="-593" font-family="DejaVu Sans" font-size="10.00">Authorization Epochs</text>
<text text-anchor="middle" x="472" y="-582" font-family="DejaVu Sans" font-size="10.00">(grants + revokes + status ⇒ time windows)</text>
</g>
<!-- trustview&#45;&gt;epochs -->
<g id="edge13" class="edge">
<title>trustview&#45;&gt;epochs</title>
<path fill="none" stroke="#1f2937" d="M258.53,-658.96C280.61,-648.51 310.06,-635.38 337,-626 353.15,-620.38 370.67,-615.19 387.57,-610.63"/>
<polygon fill="#1f2937" stroke="#1f2937" points="388.66,-613.96 397.43,-608.02 386.87,-607.19 388.66,-613.96"/>
<text text-anchor="middle" x="408" y="-629.8" font-family="Times,serif" font-size="14.00">validate credentials</text>
</g>
<!-- producers -->
<g id="node4" class="node">
<title>producers</title>
<path fill="#ede9fe" stroke="#1f2937" d="M495.5,-1067C495.5,-1067 326.5,-1067 326.5,-1067 320.5,-1067 314.5,-1061 314.5,-1055 314.5,-1055 314.5,-1043 314.5,-1043 314.5,-1037 320.5,-1031 326.5,-1031 326.5,-1031 495.5,-1031 495.5,-1031 501.5,-1031 507.5,-1037 507.5,-1043 507.5,-1043 507.5,-1055 507.5,-1055 507.5,-1061 501.5,-1067 495.5,-1067"/>
<text text-anchor="middle" x="411" y="-1052" font-family="DejaVu Sans" font-size="10.00">Event Producers</text>
<text text-anchor="middle" x="411" y="-1041" font-family="DejaVu Sans" font-size="10.00">(DATA ops; GRANT/REVOKE; signed)</text>
</g>
<!-- gossip -->
<g id="node5" class="node">
<title>gossip</title>
<path fill="#ede9fe" stroke="#1f2937" d="M492.5,-980C492.5,-980 329.5,-980 329.5,-980 323.5,-980 317.5,-974 317.5,-968 317.5,-968 317.5,-956 317.5,-956 317.5,-950 323.5,-944 329.5,-944 329.5,-944 492.5,-944 492.5,-944 498.5,-944 504.5,-950 504.5,-956 504.5,-956 504.5,-968 504.5,-968 504.5,-974 498.5,-980 492.5,-980"/>
<text text-anchor="middle" x="411" y="-965" font-family="DejaVu Sans" font-size="10.00">P2P Gossip / Sync</text>
<text text-anchor="middle" x="411" y="-954" font-family="DejaVu Sans" font-size="10.00">(anti&#45;entropy, dedup, causal fetch)</text>
</g>
<!-- producers&#45;&gt;gossip -->
<g id="edge8" class="edge">
<title>producers&#45;&gt;gossip</title>
<path fill="none" stroke="#1f2937" d="M411,-1030.8C411,-1019.16 411,-1003.55 411,-990.24"/>
<polygon fill="#1f2937" stroke="#1f2937" points="414.5,-990.18 411,-980.18 407.5,-990.18 414.5,-990.18"/>
<text text-anchor="middle" x="449.5" y="-1001.8" font-family="Times,serif" font-size="14.00">signed ops</text>
</g>
<!-- oplog -->
<g id="node6" class="node">
<title>oplog</title>
<path fill="#ffe4c7" stroke="#1f2937" d="M498.5,-874C498.5,-874 323.5,-874 323.5,-874 317.5,-874 311.5,-868 311.5,-862 311.5,-862 311.5,-850 311.5,-850 311.5,-844 317.5,-838 323.5,-838 323.5,-838 498.5,-838 498.5,-838 504.5,-838 510.5,-844 510.5,-850 510.5,-850 510.5,-862 510.5,-862 510.5,-868 504.5,-874 498.5,-874"/>
<text text-anchor="middle" x="411" y="-859" font-family="DejaVu Sans" font-size="10.00">Signed, Hash&#45;Linked Op Log</text>
<text text-anchor="middle" x="411" y="-848" font-family="DejaVu Sans" font-size="10.00">(op_id = H(domain ∥ CBOR(header)))</text>
</g>
<!-- gossip&#45;&gt;oplog -->
<g id="edge9" class="edge">
<title>gossip&#45;&gt;oplog</title>
<path fill="none" stroke="#1f2937" d="M411,-943.83C411,-927.64 411,-903.13 411,-884.27"/>
<polygon fill="#1f2937" stroke="#1f2937" points="414.5,-884.2 411,-874.2 407.5,-884.2 414.5,-884.2"/>
<text text-anchor="middle" x="450.5" y="-914.8" font-family="Times,serif" font-size="14.00">deliver ops</text>
</g>
<!-- dag -->
<g id="node7" class="node">
<title>dag</title>
<path fill="#ffe4c7" stroke="#1f2937" d="M487,-787C487,-787 323,-787 323,-787 317,-787 311,-781 311,-775 311,-775 311,-763 311,-763 311,-757 317,-751 323,-751 323,-751 487,-751 487,-751 493,-751 499,-757 499,-763 499,-763 499,-775 499,-775 499,-781 493,-787 487,-787"/>
<text text-anchor="middle" x="405" y="-772" font-family="DejaVu Sans" font-size="10.00">Causal DAG</text>
<text text-anchor="middle" x="405" y="-761" font-family="DejaVu Sans" font-size="10.00">(parents&#45;first; robust to reordering)</text>
</g>
<!-- oplog&#45;&gt;dag -->
<!-- oplog&#45;&gt;dag -->
<g id="edge10" class="edge">
<title>oplog&#45;&gt;dag</title>
<path fill="none" stroke="#1f2937" d="M409.79,-837.8C408.96,-826.16 407.86,-810.55 406.92,-797.24"/>
<polygon fill="#1f2937" stroke="#1f2937" points="410.41,-796.9 406.21,-787.18 403.43,-797.4 410.41,-796.9"/>
<text text-anchor="middle" x="435.5" y="-808.8" font-family="Times,serif" font-size="14.00">parents</text>
</g>
<!-- orderer -->
<g id="node8" class="node">
<title>orderer</title>
<path fill="#dcfce7" stroke="#1f2937" d="M569.5,-695C569.5,-695 424.5,-695 424.5,-695 418.5,-695 412.5,-689 412.5,-683 412.5,-683 412.5,-671 412.5,-671 412.5,-665 418.5,-659 424.5,-659 424.5,-659 569.5,-659 569.5,-659 575.5,-659 581.5,-665 581.5,-671 581.5,-671 581.5,-683 581.5,-683 581.5,-689 575.5,-695 569.5,-695"/>
<text text-anchor="middle" x="497" y="-680" font-family="DejaVu Sans" font-size="10.00">Deterministic Order</text>
<text text-anchor="middle" x="497" y="-669" font-family="DejaVu Sans" font-size="10.00">(Topo + (HLC, op_id) tie&#45;break)</text>
</g>
<!-- oplog&#45;&gt;orderer -->
<g id="edge11" class="edge">
<title>oplog&#45;&gt;orderer</title>
<path fill="none" stroke="#1f2937" d="M452.74,-837.89C473.7,-826.81 496.94,-810.09 508,-787 520.39,-761.12 514.36,-727.88 507.31,-704.95"/>
<polygon fill="#1f2937" stroke="#1f2937" points="510.54,-703.58 504.06,-695.2 503.9,-705.79 510.54,-703.58"/>
<text text-anchor="middle" x="545.5" y="-765.3" font-family="Times,serif" font-size="14.00">toposort</text>
</g>
<!-- dag&#45;&gt;orderer -->
<g id="edge12" class="edge">
<title>dag&#45;&gt;orderer</title>
<path fill="none" stroke="#1f2937" stroke-dasharray="5,2" d="M422.74,-750.65C436.74,-736.95 456.44,-717.68 472.03,-702.42"/>
<polygon fill="#1f2937" stroke="#1f2937" points="474.62,-704.79 479.32,-695.3 469.72,-699.79 474.62,-704.79"/>
</g>
<!-- orderer&#45;&gt;epochs -->
<!-- cedar -->
<g id="node10" class="node">
<title>cedar</title>
<path fill="#ecfccb" stroke="#1f2937" d="M601.5,-516C601.5,-516 462.5,-516 462.5,-516 456.5,-516 450.5,-510 450.5,-504 450.5,-504 450.5,-492 450.5,-492 450.5,-486 456.5,-480 462.5,-480 462.5,-480 601.5,-480 601.5,-480 607.5,-480 613.5,-486 613.5,-492 613.5,-492 613.5,-504 613.5,-504 613.5,-510 607.5,-516 601.5,-516"/>
<text text-anchor="middle" x="532" y="-501" font-family="DejaVu Sans" font-size="10.00">Policy Engine (Cedar)</text>
<text text-anchor="middle" x="532" y="-490" font-family="DejaVu Sans" font-size="10.00">(ABAC/RBAC; deny&#45;overrides)</text>
</g>
<!-- orderer&#45;&gt;cedar -->
<g id="edge14" class="edge">
<title>orderer&#45;&gt;cedar</title>
<path fill="none" stroke="#1f2937" d="M540.46,-658.97C562.23,-647.95 586.55,-631.27 599,-608 608.23,-590.76 606.62,-582.01 599,-564 592.1,-547.68 578.87,-533.45 565.98,-522.5"/>
<polygon fill="#1f2937" stroke="#1f2937" points="568.04,-519.66 558.06,-516.11 563.65,-525.11 568.04,-519.66"/>
</g>
<!-- epochs&#45;&gt;cedar -->
<g id="edge15" class="edge">
<title>epochs&#45;&gt;cedar</title>
<path fill="none" stroke="#1f2937" d="M483.57,-571.65C492.45,-558.32 504.85,-539.72 514.88,-524.68"/>
<polygon fill="#1f2937" stroke="#1f2937" points="517.83,-526.56 520.47,-516.3 512.01,-522.68 517.83,-526.56"/>
</g>
<!-- gate -->
<g id="node11" class="node">
<title>gate</title>
<path fill="#fef3c7" stroke="#1f2937" d="M638,-410C638,-410 426,-410 426,-410 420,-410 414,-404 414,-398 414,-398 414,-386 414,-386 414,-380 420,-374 426,-374 426,-374 638,-374 638,-374 644,-374 650,-380 650,-386 650,-386 650,-398 650,-398 650,-404 644,-410 638,-410"/>
<text text-anchor="middle" x="532" y="-395" font-family="DejaVu Sans" font-size="10.00">Deny&#45;Wins Gate</text>
<text text-anchor="middle" x="532" y="-384" font-family="DejaVu Sans" font-size="10.00">(apply if authorized @ event time; else skip)</text>
</g>
<!-- cedar&#45;&gt;gate -->
<!-- cedar&#45;&gt;gate -->
<g id="edge16" class="edge">
<title>cedar&#45;&gt;gate</title>
<path fill="none" stroke="#1f2937" d="M532,-479.83C532,-463.64 532,-439.13 532,-420.27"/>
<polygon fill="#1f2937" stroke="#1f2937" points="535.5,-420.2 532,-410.2 528.5,-420.2 535.5,-420.2"/>
<text text-anchor="middle" x="561.5" y="-450.8" font-family="Times,serif" font-size="14.00">decision</text>
</g>
<!-- replay -->
<g id="node12" class="node">
<title>replay</title>
<path fill="#ccfbf1" stroke="#1f2937" d="M665.5,-304C665.5,-304 504.5,-304 504.5,-304 498.5,-304 492.5,-298 492.5,-292 492.5,-292 492.5,-280 492.5,-280 492.5,-274 498.5,-268 504.5,-268 504.5,-268 665.5,-268 665.5,-268 671.5,-268 677.5,-274 677.5,-280 677.5,-280 677.5,-292 677.5,-292 677.5,-298 671.5,-304 665.5,-304"/>
<text text-anchor="middle" x="585" y="-289" font-family="DejaVu Sans" font-size="10.00">Deterministic Replay</text>
<text text-anchor="middle" x="585" y="-278" font-family="DejaVu Sans" font-size="10.00">(scan order, run gate, apply DATA)</text>
</g>
<!-- gate&#45;&gt;replay -->
<g id="edge17" class="edge">
<title>gate&#45;&gt;replay</title>
<path fill="none" stroke="#1f2937" d="M540.75,-373.83C549.15,-357.34 561.96,-332.22 571.63,-313.23"/>
<polygon fill="#1f2937" stroke="#1f2937" points="574.81,-314.7 576.24,-304.2 568.58,-311.52 574.81,-314.7"/>
</g>
<!-- crdt -->
<g id="node13" class="node">
<title>crdt</title>
<path fill="#cffafe" stroke="#1f2937" d="M634.5,-231C634.5,-231 515.5,-231 515.5,-231 509.5,-231 503.5,-225 503.5,-219 503.5,-219 503.5,-207 503.5,-207 503.5,-201 509.5,-195 515.5,-195 515.5,-195 634.5,-195 634.5,-195 640.5,-195 646.5,-201 646.5,-207 646.5,-207 646.5,-219 646.5,-219 646.5,-225 640.5,-231 634.5,-231"/>
<text text-anchor="middle" x="575" y="-216" font-family="DejaVu Sans" font-size="10.00">CRDT Layer</text>
<text text-anchor="middle" x="575" y="-205" font-family="DejaVu Sans" font-size="10.00">(MVReg / OR&#45;Set merges)</text>
</g>
<!-- replay&#45;&gt;crdt -->
<!-- replay&#45;&gt;crdt -->
<g id="edge18" class="edge">
<title>replay&#45;&gt;crdt</title>
<path fill="none" stroke="#1f2937" d="M588.46,-267.81C588.17,-259.79 587.03,-250.05 585.39,-241.07"/>
<polygon fill="#1f2937" stroke="#1f2937" points="588.76,-240.08 583.26,-231.03 581.91,-241.54 588.76,-240.08"/>
</g>
<!-- state -->
<g id="node14" class="node">
<title>state</title>
<path fill="#f3f4f6" stroke="#1f2937" d="M681.5,-139C681.5,-139 468.5,-139 468.5,-139 462.5,-139 456.5,-133 456.5,-127 456.5,-127 456.5,-115 456.5,-115 456.5,-109 462.5,-103 468.5,-103 468.5,-103 681.5,-103 681.5,-103 687.5,-103 693.5,-109 693.5,-115 693.5,-115 693.5,-127 693.5,-127 693.5,-133 687.5,-139 681.5,-139"/>
<text text-anchor="middle" x="575" y="-124" font-family="DejaVu Sans" font-size="10.00">Materialized State</text>
<text text-anchor="middle" x="575" y="-113" font-family="DejaVu Sans" font-size="10.00">(policy&#45;correct; identical given same events)</text>
</g>
<!-- replay&#45;&gt;state -->
<g id="edge19" class="edge">
<title>replay&#45;&gt;state</title>
<path fill="none" stroke="#1f2937" d="M619.44,-267.95C633.48,-259.04 648.23,-246.68 656,-231 664.69,-213.48 664.46,-204.63 656,-187 647.64,-169.58 632.09,-155.35 616.83,-144.7"/>
<polygon fill="#1f2937" stroke="#1f2937" points="618.7,-141.74 608.43,-139.15 614.85,-147.59 618.7,-141.74"/>
</g>
<!-- metrics -->
<g id="node17" class="node">
<title>metrics</title>
<path fill="#f3f4f6" stroke="#1f2937" d="M904,-139C904,-139 724,-139 724,-139 718,-139 712,-133 712,-127 712,-127 712,-115 712,-115 712,-109 718,-103 724,-103 724,-103 904,-103 904,-103 910,-103 916,-109 916,-115 916,-115 916,-127 916,-127 916,-133 910,-139 904,-139"/>
<text text-anchor="middle" x="814" y="-124" font-family="DejaVu Sans" font-size="10.00">Metrics &amp; Evaluation</text>
<text text-anchor="middle" x="814" y="-113" font-family="DejaVu Sans" font-size="10.00">(convergence, rollbacks, rebuild time)</text>
</g>
<!-- replay&#45;&gt;metrics -->
<g id="edge21" class="edge">
<title>replay&#45;&gt;metrics</title>
<path fill="none" stroke="#1f2937" d="M623.44,-267.99C634.24,-262.69 645.81,-256.52 656,-250 705.67,-218.2 757.8,-173.39 788.03,-146.1"/>
<polygon fill="#1f2937" stroke="#1f2937" points="790.55,-148.54 795.59,-139.22 785.84,-143.36 790.55,-148.54"/>
<text text-anchor="middle" x="767.5" y="-209.3" font-family="Times,serif" font-size="14.00">metrics</text>
</g>
<!-- crdt&#45;&gt;state -->
<g id="edge22" class="edge">
<title>crdt&#45;&gt;state</title>
<path fill="none" stroke="#1f2937" stroke-dasharray="5,2" d="M575,-194.65C575,-181.82 575,-164.11 575,-149.38"/>
<polygon fill="#1f2937" stroke="#1f2937" points="578.5,-149.3 575,-139.3 571.5,-149.3 578.5,-149.3"/>
</g>
<!-- storage -->
<g id="node15" class="node">
<title>storage</title>
<path fill="#f3f4f6" stroke="#1f2937" d="M668,-52C668,-52 456,-52 456,-52 450,-52 444,-46 444,-40 444,-40 444,-28 444,-28 444,-22 450,-16 456,-16 456,-16 668,-16 668,-16 674,-16 680,-22 680,-28 680,-28 680,-40 680,-40 680,-46 674,-52 668,-52"/>
<text text-anchor="middle" x="562" y="-37" font-family="DejaVu Sans" font-size="10.00">Persistence &amp; Checkpoints</text>
<text text-anchor="middle" x="562" y="-26" font-family="DejaVu Sans" font-size="10.00">(append&#45;only; periodic deterministic checks)</text>
</g>
<!-- state&#45;&gt;storage -->
<g id="edge24" class="edge">
<title>state&#45;&gt;storage</title>
<path fill="none" stroke="#1f2937" d="M570.66,-102.99C569.33,-97.3 567.97,-90.91 567,-85 565.79,-77.63 564.83,-69.59 564.09,-62.16"/>
<polygon fill="#1f2937" stroke="#1f2937" points="567.58,-61.84 563.19,-52.19 560.61,-62.47 567.58,-61.84"/>
</g>
<!-- audit -->
<g id="node16" class="node">
<title>audit</title>
<path fill="#f3f4f6" stroke="#1f2937" d="M916,-52C916,-52 710,-52 710,-52 704,-52 698,-46 698,-40 698,-40 698,-28 698,-28 698,-22 704,-16 710,-16 710,-16 916,-16 916,-16 922,-16 928,-22 928,-28 928,-28 928,-40 928,-40 928,-46 922,-52 916,-52"/>
<text text-anchor="middle" x="813" y="-37" font-family="DejaVu Sans" font-size="10.00">Audit Trail</text>
<text text-anchor="middle" x="813" y="-26" font-family="DejaVu Sans" font-size="10.00">(signed, hash&#45;chained applied/skipped ops)</text>
</g>
<!-- state&#45;&gt;audit -->
<g id="edge20" class="edge">
<title>state&#45;&gt;audit</title>
<path fill="none" stroke="#1f2937" d="M622.88,-102.9C661.21,-89.21 715.08,-69.97 755.7,-55.46"/>
<polygon fill="#1f2937" stroke="#1f2937" points="756.96,-58.73 765.2,-52.07 754.61,-52.14 756.96,-58.73"/>
<text text-anchor="middle" x="761" y="-73.8" font-family="Times,serif" font-size="14.00">semantic trace</text>
</g>
<!-- conf -->
<g id="node18" class="node">
<title>conf</title>
<path fill="#fee2e2" stroke="#1f2937" d="M930,-410C930,-410 686,-410 686,-410 680,-410 674,-404 674,-398 674,-398 674,-386 674,-386 674,-380 680,-374 686,-374 686,-374 930,-374 930,-374 936,-374 942,-380 942,-386 942,-386 942,-398 942,-398 942,-404 936,-410 930,-410"/>
<text text-anchor="middle" x="808" y="-395" font-family="DejaVu Sans" font-size="10.00">Confidentiality &amp; Keys</text>
<text text-anchor="middle" x="808" y="-384" font-family="DejaVu Sans" font-size="10.00">(tag/version encryption; key rotation at revocation)</text>
</g>
<!-- conf&#45;&gt;replay -->
<g id="edge23" class="edge">
<title>conf&#45;&gt;replay</title>
<path fill="none" stroke="#1f2937" d="M771.18,-373.83C732.65,-355.86 672.1,-327.62 630.58,-308.26"/>
<polygon fill="#1f2937" stroke="#1f2937" points="632.05,-305.08 621.51,-304.03 629.09,-311.42 632.05,-305.08"/>
<text text-anchor="middle" x="804.5" y="-344.8" font-family="Times,serif" font-size="14.00">decrypt if authorized</text>
</g>
</g>
</svg>
